<svg width="32" height="32" viewBox="0 0 32 32" fill="none" xmlns="http://www.w3.org/2000/svg">
<path d="M17.3333 25.334C17.3333 24.8807 17.3866 24.4407 17.4533 24.0007H3.99992V16.0007H25.3333V17.334C26.2666 17.334 27.1599 17.5073 27.9999 17.8007V8.00065C27.9999 6.52065 26.8133 5.33398 25.3333 5.33398H3.99992C2.51992 5.33398 1.33325 6.52065 1.33325 8.00065V24.0007C1.33325 24.7079 1.6142 25.3862 2.1143 25.8863C2.6144 26.3864 3.29267 26.6673 3.99992 26.6673H17.4533C17.3866 26.2273 17.3333 25.7873 17.3333 25.334ZM3.99992 8.00065H25.3333V10.6673H3.99992V8.00065ZM30.0533 22.5073L27.2133 25.334L30.0533 28.1607L28.1599 30.054L25.3333 27.214L22.5066 30.054L20.6266 28.1607L23.4533 25.334L20.6266 22.5073L22.5066 20.6273L25.3333 23.454L28.1599 20.614L30.0533 22.5073Z" fill="#EE4155"/>
</svg>
