<svg width="32" height="32" viewBox="0 0 32 32" fill="none" xmlns="http://www.w3.org/2000/svg">
<g clip-path="url(#clip0_4489_42738)">
<path d="M21.3333 18.6673H23.3333V22.4273L26.5866 24.3073L25.5866 26.0407L21.3333 23.5873V18.6673ZM32 22.6673C32 25.1427 31.0166 27.5166 29.2663 29.267C27.5159 31.0173 25.142 32.0007 22.6666 32.0007C18.9466 32.0007 15.7333 29.814 14.2266 26.6673H5.33329C4.62605 26.6673 3.94777 26.3864 3.44767 25.8863C2.94758 25.3862 2.66663 24.7079 2.66663 24.0007V8.00065C2.66663 6.52065 3.85329 5.33398 5.33329 5.33398H26.6666C27.3739 5.33398 28.0521 5.61494 28.5522 6.11503C29.0523 6.61513 29.3333 7.29341 29.3333 8.00065V16.134C30.9866 17.814 32 20.1207 32 22.6673ZM13.3333 22.6673C13.3333 20.054 14.4133 17.694 16.1333 16.0007H5.33329V24.0007H13.4266C13.3333 23.5607 13.3333 23.1207 13.3333 22.6673ZM22.6666 16.0007C20.8985 16.0007 19.2028 16.703 17.9526 17.9533C16.7023 19.2035 16 20.8992 16 22.6673C16 24.4354 16.7023 26.1311 17.9526 27.3814C19.2028 28.6316 20.8985 29.334 22.6666 29.334C24.4347 29.334 26.1304 28.6316 27.3807 27.3814C28.6309 26.1311 29.3333 24.4354 29.3333 22.6673C29.3333 20.8992 28.6309 19.2035 27.3807 17.9533C26.1304 16.703 24.4347 16.0007 22.6666 16.0007ZM26.6666 10.6673V8.00065H5.33329V10.6673H26.6666Z" fill="#54B3C6"/>
</g>
<defs>
<clipPath id="clip0_4489_42738">
<rect width="32" height="32" fill="white"/>
</clipPath>
</defs>
</svg>
