<svg width="32" height="32" viewBox="0 0 32 32" fill="none" xmlns="http://www.w3.org/2000/svg">
<g clip-path="url(#clip0_4489_42717)">
<path d="M20.5391 0.000794226C20.2929 0.0106404 20.0554 0.0549481 19.808 0.116487L3.07693 4.19279C1.09785 4.67772 -0.140306 6.67403 0.345848 8.65433L2.69169 18.2322C2.83385 18.8027 3.11063 19.3308 3.49885 19.7724C3.88708 20.2139 4.37546 20.556 4.92308 20.77V18.4623C4.92308 15.0691 7.68369 12.3085 11.0769 12.3085H26.5772L24.2695 2.80818C24.0654 1.98236 23.5828 1.25218 22.903 0.740772C22.2232 0.229365 21.3879 -0.0319841 20.5378 0.000794226H20.5391ZM22.0382 5.3091L23.0388 9.5011L18.8849 10.5005L17.8462 6.34664L22.0382 5.3091ZM11.0769 14.77C9.03877 14.77 7.38462 16.4242 7.38462 18.4623V28.3085C7.38462 30.3466 9.03877 32.0008 11.0769 32.0008H28.3077C30.3458 32.0008 32 30.3466 32 28.3085V18.4623C32 16.4242 30.3458 14.77 28.3077 14.77H11.0769ZM11.0769 16.7319H28.3077C29.2566 16.7319 30.0382 17.5134 30.0382 18.4623V19.6931H9.34646V18.4623C9.34646 17.5134 10.128 16.7319 11.0769 16.7319ZM9.34646 23.3854H30.0382V28.3085C30.0382 29.2574 29.2566 30.0389 28.3077 30.0389H11.0769C10.6188 30.0364 10.1801 29.8532 9.85616 29.5293C9.53219 29.2053 9.34905 28.7666 9.34646 28.3085V23.3854Z" fill="#1382BB"/>
</g>
<defs>
<clipPath id="clip0_4489_42717">
<rect width="32" height="32" fill="white"/>
</clipPath>
</defs>
</svg>
